<?xml version="1.0" encoding="UTF-8" standalone="no"?>
<svg
   xml:space="preserve"
   version="1.0"
   style="clip-rule:evenodd;fill-rule:evenodd;image-rendering:optimizeQuality;shape-rendering:geometricPrecision;text-rendering:geometricPrecision"
   viewBox="0 0 2437.1348 960.53058"
   id="svg3"
   sodipodi:docname="logo-with-text.svg"
   inkscape:version="1.4.2 (ebf0e940d0, 2025-05-08)"
   width="2437.1348"
   height="960.53058"
   xmlns:inkscape="http://www.inkscape.org/namespaces/inkscape"
   xmlns:sodipodi="http://sodipodi.sourceforge.net/DTD/sodipodi-0.dtd"
   xmlns="http://www.w3.org/2000/svg"
   xmlns:svg="http://www.w3.org/2000/svg"><sodipodi:namedview
   id="namedview3"
   pagecolor="#ffffff"
   bordercolor="#000000"
   borderopacity="0.25"
   inkscape:showpageshadow="2"
   inkscape:pageopacity="0.0"
   inkscape:pagecheckerboard="0"
   inkscape:deskcolor="#d1d1d1"
   showgrid="true"
   inkscape:zoom="0.18978102"
   inkscape:cx="1910.0962"
   inkscape:cy="951.09615"
   inkscape:window-width="1795"
   inkscape:window-height="1050"
   inkscape:window-x="0"
   inkscape:window-y="0"
   inkscape:window-maximized="1"
   inkscape:current-layer="svg3"><inkscape:grid
     id="grid3"
     units="px"
     originx="-82.346155"
     originy="-729.18332"
     spacingx="1"
     spacingy="1"
     empcolor="#0099e5"
     empopacity="0.30196078"
     color="#0099e5"
     opacity="0.14902"
     empspacing="5"
     enabled="true"
     visible="true" /></sodipodi:namedview>
 <defs
   id="defs1">
  <style
   type="text/css"
   id="style1">
   <![CDATA[
    .str0 {stroke:currentColor;stroke-width:55.5551;stroke-linecap:round}
    .fil2 {fill:none}
    .fil0 {fill:currentColor}
    .fil1 {fill:#e03647}
   ]]>
  </style>
 </defs>
 <g
   id="Layer_x0020_1"
   transform="matrix(0.38656085,0,0,0.38656085,-21.647408,-22.880242)">
  <metadata
   id="metadata1" />
  <path
   class="fil0"
   d="M 807,74 C 522,311 238,693 56,1017 c 81,310 159,686 278,988 273,183 659,435 968,539 379,-118 775,-423 1051,-657 85,-327 160,-617 194,-954 C 2321,593 2124,372 1814,90 1447,51 1190,53 807,74 Z"
   id="path1" />
  <path
   class="fil1"
   d="m 832,136 c -270,225 -540,588 -713,895 77,294 151,651 264,938 259,174 625,414 919,512 360,-112 735,-401 998,-624 80,-310 151,-585 184,-905 C 2269,629 2082,419 1788,151 1439,114 1196,117 832,136 Z"
   id="path2" />
  <path
   class="fil2 str0"
   d="m 1266,1185 c 136,0 164,105 132,187 -46,116 -558,190 -464,-248 76,-357 322,-415 536,-289 329,195 310,467 149,697 -136,194 -292,280 -444,282 -165,3 -361,-92 -483,-251 C 541,1367 554,1137 644,929 767,645 952,472 1167,427 c 399,-85 702,221 850,553 122,275 81,483 -148,752 -310,365 -536,234 -564,748"
   id="path3" />
 </g>
<g
   style="fill:currentColor"
   id="g3"
   transform="matrix(11.043118,0,0,11.043118,1070.3943,409.50098)"><path
     d="M 0,0.324 C 0.276,0.276 0.573,0.231 0.891,0.189 1.209,0.147 1.527,0.114 1.845,0.09 2.163,0.066 2.472,0.048 2.772,0.036 3.072,0.024 3.348,0.018 3.6,0.018 c 0.588,0 1.167,0.057 1.737,0.171 0.57,0.114 1.08,0.309 1.53,0.585 0.45,0.276 0.81,0.648 1.08,1.116 0.27,0.468 0.405,1.05 0.405,1.746 0,0.516 -0.051,0.963 -0.153,1.341 C 8.097,5.355 7.956,5.688 7.776,5.976 7.596,6.264 7.377,6.513 7.119,6.723 6.861,6.933 6.582,7.122 6.282,7.29 l 3.042,5.508 H 6.48 L 3.942,7.866 H 2.466 v 4.932 H 0 Z m 3.78,1.89 C 3.528,2.214 3.279,2.22 3.033,2.232 2.787,2.244 2.598,2.268 2.466,2.304 V 5.958 H 3.438 C 4.122,5.958 4.68,5.802 5.112,5.49 5.544,5.178 5.76,4.662 5.76,3.942 5.76,3.402 5.592,2.979 5.256,2.673 4.92,2.367 4.428,2.214 3.78,2.214 Z"
     id="path1-3" /><path
     d="m 15.624,3.798 h 3.348 v 6.264 c 0,0.252 0,0.504 0,0.756 h 1.368 v 1.98 H 17.496 L 17.082,11.466 H 17.01 c -0.276,0.456 -0.69,0.834 -1.242,1.134 -0.552,0.3 -1.164,0.45 -1.836,0.45 -0.456,0 -0.873,-0.06 -1.251,-0.18 C 12.303,12.75 11.982,12.552 11.718,12.276 11.454,12 11.25,11.628 11.106,11.16 10.962,10.692 10.89,10.104 10.89,9.396 V 5.778 H 9.864 V 3.798 H 13.23 V 8.91 c 0,0.732 0.117,1.26 0.351,1.584 0.234,0.324 0.603,0.486 1.107,0.486 0.444,0 0.843,-0.132 1.197,-0.396 0.354,-0.264 0.603,-0.588 0.747,-0.972 V 5.778 h -1.008 z"
     id="path2-6" /><path
     d="m 20.25,0.198 h 3.726 v 4.32 h 0.072 C 24.3,4.23 24.639,4.002 25.065,3.834 25.491,3.666 26.016,3.582 26.64,3.582 c 1.188,0 2.139,0.372 2.853,1.116 0.714,0.744 1.071,1.866 1.071,3.366 0,0.804 -0.12,1.515 -0.36,2.133 -0.24,0.618 -0.579,1.134 -1.017,1.548 -0.438,0.414 -0.972,0.729 -1.602,0.945 -0.63,0.216 -1.341,0.324 -2.133,0.324 -0.936,0 -1.719,-0.108 -2.349,-0.324 -0.63,-0.216 -1.119,-0.432 -1.467,-0.648 V 2.178 H 20.25 Z m 5.742,5.364 c -0.168,0 -0.354,0.03 -0.558,0.09 -0.204,0.06 -0.399,0.144 -0.585,0.252 -0.186,0.108 -0.36,0.243 -0.522,0.405 -0.162,0.162 -0.279,0.345 -0.351,0.549 v 3.744 c 0.192,0.096 0.456,0.192 0.792,0.288 0.336,0.096 0.696,0.144 1.08,0.144 0.312,0 0.609,-0.057 0.891,-0.171 0.282,-0.114 0.528,-0.291 0.738,-0.531 0.21,-0.24 0.375,-0.54 0.495,-0.9 0.12,-0.36 0.18,-0.792 0.18,-1.296 0,-0.852 -0.183,-1.494 -0.549,-1.926 C 27.237,5.778 26.7,5.562 25.992,5.562 Z"
     id="path3-7" /><path
     d="m 36.702,10.26 h 0.684 l 1.746,-6.462 h 2.412 l -2.556,8.118 c -0.228,0.672 -0.45,1.287 -0.666,1.845 -0.216,0.558 -0.468,1.041 -0.756,1.449 -0.288,0.408 -0.627,0.723 -1.017,0.945 -0.39,0.222 -0.867,0.333 -1.431,0.333 -0.276,0 -0.537,-0.036 -0.783,-0.108 -0.246,-0.072 -0.471,-0.159 -0.675,-0.261 -0.204,-0.102 -0.384,-0.21 -0.54,-0.324 -0.156,-0.114 -0.282,-0.219 -0.378,-0.315 l 1.206,-1.602 c 0.156,0.132 0.342,0.255 0.558,0.369 0.216,0.114 0.42,0.171 0.612,0.171 0.36,0 0.645,-0.126 0.855,-0.378 0.21,-0.252 0.411,-0.666 0.603,-1.242 h -1.278 l -3.744,-9 h 2.538 z"
     id="path4" /><path
     d="m 58.478,3.132 c 0,0.312 -0.039,0.624 -0.117,0.936 -0.078,0.312 -0.207,0.597 -0.387,0.855 -0.18,0.258 -0.414,0.486 -0.702,0.684 -0.288,0.198 -0.636,0.345 -1.044,0.441 v 0.108 c 0.36,0.06 0.702,0.162 1.026,0.306 0.324,0.144 0.606,0.342 0.846,0.594 0.24,0.252 0.429,0.558 0.567,0.918 0.138,0.36 0.207,0.786 0.207,1.278 0,0.648 -0.138,1.209 -0.414,1.683 -0.276,0.474 -0.645,0.861 -1.107,1.161 -0.462,0.3 -0.987,0.522 -1.575,0.666 -0.588,0.144 -1.194,0.216 -1.818,0.216 -0.204,0 -0.465,0 -0.783,0 -0.318,0 -0.66,-0.009 -1.026,-0.027 C 51.785,12.933 51.413,12.906 51.035,12.87 50.657,12.834 50.312,12.78 50,12.708 V 0.288 c 0.228,-0.036 0.489,-0.072 0.783,-0.108 0.294,-0.036 0.609,-0.066 0.945,-0.09 0.336,-0.024 0.681,-0.042 1.035,-0.054 0.354,-0.012 0.705,-0.018 1.053,-0.018 0.588,0 1.161,0.045 1.719,0.135 0.558,0.09 1.056,0.249 1.494,0.477 0.438,0.228 0.789,0.546 1.053,0.954 0.264,0.408 0.396,0.924 0.396,1.548 z m -4.5,7.812 c 0.3,0 0.591,-0.036 0.873,-0.108 0.282,-0.072 0.531,-0.183 0.747,-0.333 0.216,-0.15 0.39,-0.339 0.522,-0.567 0.132,-0.228 0.198,-0.498 0.198,-0.81 C 56.318,8.73 56.24,8.418 56.084,8.19 55.928,7.962 55.724,7.785 55.472,7.659 55.22,7.533 54.938,7.452 54.626,7.416 54.314,7.38 54.002,7.362 53.69,7.362 h -1.314 v 3.474 c 0.06,0.024 0.156,0.042 0.288,0.054 0.132,0.012 0.273,0.021 0.423,0.027 0.15,0.006 0.306,0.012 0.468,0.018 0.162,0.006 0.303,0.009 0.423,0.009 z M 53.168,5.49 c 0.168,0 0.363,-0.006 0.585,-0.018 0.222,-0.012 0.405,-0.03 0.549,-0.054 0.456,-0.144 0.849,-0.36 1.179,-0.648 0.33,-0.288 0.495,-0.666 0.495,-1.134 0,-0.312 -0.06,-0.57 -0.18,-0.774 C 55.676,2.658 55.517,2.496 55.319,2.376 55.121,2.256 54.896,2.172 54.644,2.124 54.392,2.076 54.128,2.052 53.852,2.052 53.54,2.052 53.252,2.058 52.988,2.07 52.724,2.082 52.52,2.1 52.376,2.124 V 5.49 Z"
     id="path5" /><path
     d="m 61.304,4.41 c 0.48,-0.216 1.035,-0.402 1.665,-0.558 0.63,-0.156 1.377,-0.234 2.241,-0.234 0.624,0 1.155,0.075 1.593,0.225 0.438,0.15 0.792,0.363 1.062,0.639 0.27,0.276 0.465,0.606 0.585,0.99 0.12,0.384 0.18,0.816 0.18,1.296 0,0.612 -0.021,1.134 -0.063,1.566 -0.042,0.432 -0.063,0.816 -0.063,1.152 0,0.252 0.012,0.534 0.036,0.846 0.024,0.168 0.042,0.33 0.054,0.486 h 1.17 v 1.98 h -2.988 l -0.234,-1.224 h -0.09 c -0.24,0.372 -0.582,0.693 -1.026,0.963 -0.444,0.27 -1.044,0.405 -1.8,0.405 -0.9,0 -1.614,-0.24 -2.142,-0.72 -0.528,-0.48 -0.792,-1.116 -0.792,-1.908 0,-0.504 0.093,-0.939 0.279,-1.305 0.186,-0.366 0.456,-0.666 0.81,-0.9 0.354,-0.234 0.78,-0.408 1.278,-0.522 0.498,-0.114 1.053,-0.171 1.665,-0.171 0.216,0 0.444,0.012 0.684,0.036 0.24,0.024 0.534,0.048 0.882,0.072 0.024,-0.12 0.036,-0.24 0.036,-0.36 V 6.822 c 0,-0.456 -0.132,-0.783 -0.396,-0.981 -0.264,-0.198 -0.654,-0.297 -1.17,-0.297 -0.612,0 -1.164,0.078 -1.656,0.234 -0.492,0.156 -0.906,0.312 -1.242,0.468 z m 3.078,6.606 c 0.576,0 1.008,-0.105 1.296,-0.315 0.288,-0.21 0.498,-0.435 0.63,-0.675 V 8.946 C 66.188,8.922 66.008,8.895 65.768,8.865 65.528,8.835 65.27,8.82 64.994,8.82 c -0.228,0 -0.456,0.021 -0.684,0.063 -0.228,0.042 -0.432,0.108 -0.612,0.198 -0.18,0.09 -0.324,0.207 -0.432,0.351 -0.108,0.144 -0.162,0.318 -0.162,0.522 0,0.336 0.099,0.597 0.297,0.783 0.198,0.186 0.525,0.279 0.981,0.279 z"
     id="path6" /><path
     d="m 70.7,3.798 h 3.15 l 0.27,1.188 h 0.072 c 0.276,-0.384 0.672,-0.72 1.188,-1.008 0.516,-0.288 1.134,-0.432 1.854,-0.432 0.444,0 0.861,0.06 1.251,0.18 0.39,0.12 0.723,0.318 0.999,0.594 0.276,0.276 0.495,0.651 0.657,1.125 0.162,0.474 0.243,1.059 0.243,1.755 v 5.598 h -2.34 V 7.686 c 0,-0.732 -0.165,-1.26 -0.495,-1.584 -0.33,-0.324 -0.747,-0.486 -1.251,-0.486 -0.444,0 -0.849,0.129 -1.215,0.387 -0.366,0.258 -0.615,0.579 -0.747,0.963 v 5.832 h -2.34 V 5.778 H 70.7 Z"
     id="path7" /><path
     d="m 82.346,10.818 h 3.168 v -5.04 h -3.168 v -1.98 h 5.508 v 7.02 h 3.33 v 1.98 H 82.346 Z M 85.082,1.35 c 0,-0.372 0.138,-0.69 0.414,-0.954 C 85.772,0.132 86.156,0 86.648,0 c 0.504,0 0.906,0.132 1.206,0.396 0.3,0.264 0.45,0.582 0.45,0.954 0,0.384 -0.15,0.699 -0.45,0.945 -0.3,0.246 -0.702,0.369 -1.206,0.369 -0.492,0 -0.876,-0.123 -1.152,-0.369 C 85.22,2.049 85.082,1.734 85.082,1.35 Z"
     id="path8" /><path
     d="M 94.172,5.778 H 92.39 v -1.98 h 1.782 V 1.746 l 2.34,-0.666 v 2.718 h 4.716 v 1.98 h -4.716 v 2.574 c 0,0.924 0.174,1.593 0.522,2.007 0.348,0.414 0.834,0.621 1.458,0.621 0.324,0 0.618,-0.039 0.882,-0.117 0.264,-0.078 0.501,-0.177 0.711,-0.297 0.21,-0.12 0.402,-0.252 0.576,-0.396 0.174,-0.144 0.333,-0.276 0.477,-0.396 l 1.08,1.62 c -0.204,0.24 -0.459,0.459 -0.765,0.657 -0.306,0.198 -0.636,0.372 -0.99,0.522 -0.354,0.15 -0.723,0.267 -1.107,0.351 -0.384,0.084 -0.762,0.126 -1.134,0.126 -1.344,0 -2.355,-0.375 -3.033,-1.125 -0.678,-0.75 -1.017,-1.941 -1.017,-3.573 z"
     id="path9" /><path
     d="m 110.12,10.314 c 0,-0.24 -0.147,-0.432 -0.441,-0.576 -0.294,-0.144 -0.657,-0.276 -1.089,-0.396 -0.432,-0.12 -0.906,-0.243 -1.422,-0.369 -0.516,-0.126 -0.99,-0.3 -1.422,-0.522 -0.432,-0.222 -0.795,-0.504 -1.089,-0.846 -0.294,-0.342 -0.441,-0.783 -0.441,-1.323 0,-0.444 0.099,-0.834 0.297,-1.17 0.198,-0.336 0.468,-0.621 0.81,-0.855 0.342,-0.234 0.75,-0.411 1.224,-0.531 0.474,-0.12 0.987,-0.18 1.539,-0.18 0.588,0 1.104,0.042 1.548,0.126 0.444,0.084 0.831,0.186 1.161,0.306 0.33,0.12 0.612,0.255 0.846,0.405 0.234,0.15 0.435,0.285 0.603,0.405 l -0.99,1.602 c -0.18,-0.108 -0.387,-0.219 -0.621,-0.333 -0.234,-0.114 -0.48,-0.219 -0.738,-0.315 -0.258,-0.096 -0.528,-0.174 -0.81,-0.234 -0.282,-0.06 -0.561,-0.09 -0.837,-0.09 -0.504,0 -0.912,0.066 -1.224,0.198 -0.312,0.132 -0.468,0.336 -0.468,0.612 0,0.216 0.147,0.39 0.441,0.522 0.294,0.132 0.657,0.255 1.089,0.369 0.432,0.114 0.906,0.237 1.422,0.369 0.516,0.132 0.99,0.303 1.422,0.513 0.432,0.21 0.795,0.483 1.089,0.819 0.294,0.336 0.441,0.768 0.441,1.296 0,0.912 -0.333,1.629 -0.999,2.151 -0.666,0.522 -1.653,0.783 -2.961,0.783 -1.032,0 -1.923,-0.153 -2.673,-0.459 -0.75,-0.306 -1.353,-0.663 -1.809,-1.071 l 1.08,-1.692 c 0.156,0.132 0.363,0.279 0.621,0.441 0.258,0.162 0.549,0.309 0.873,0.441 0.324,0.132 0.669,0.243 1.035,0.333 0.366,0.09 0.729,0.135 1.089,0.135 0.384,0 0.714,-0.066 0.99,-0.198 0.276,-0.132 0.414,-0.354 0.414,-0.666 z"
     id="path10" /><path
     d="m 115.304,4.41 c 0.48,-0.216 1.035,-0.402 1.665,-0.558 0.63,-0.156 1.377,-0.234 2.241,-0.234 0.624,0 1.155,0.075 1.593,0.225 0.438,0.15 0.792,0.363 1.062,0.639 0.27,0.276 0.465,0.606 0.585,0.99 0.12,0.384 0.18,0.816 0.18,1.296 0,0.612 -0.021,1.134 -0.063,1.566 -0.042,0.432 -0.063,0.816 -0.063,1.152 0,0.252 0.012,0.534 0.036,0.846 0.024,0.168 0.042,0.33 0.054,0.486 h 1.17 v 1.98 h -2.988 l -0.234,-1.224 h -0.09 c -0.24,0.372 -0.582,0.693 -1.026,0.963 -0.444,0.27 -1.044,0.405 -1.8,0.405 -0.9,0 -1.614,-0.24 -2.142,-0.72 -0.528,-0.48 -0.792,-1.116 -0.792,-1.908 0,-0.504 0.093,-0.939 0.279,-1.305 0.186,-0.366 0.456,-0.666 0.81,-0.9 0.354,-0.234 0.78,-0.408 1.278,-0.522 0.498,-0.114 1.053,-0.171 1.665,-0.171 0.216,0 0.444,0.012 0.684,0.036 0.24,0.024 0.534,0.048 0.882,0.072 0.024,-0.12 0.036,-0.24 0.036,-0.36 V 6.822 c 0,-0.456 -0.132,-0.783 -0.396,-0.981 -0.264,-0.198 -0.654,-0.297 -1.17,-0.297 -0.612,0 -1.164,0.078 -1.656,0.234 -0.492,0.156 -0.906,0.312 -1.242,0.468 z m 3.078,6.606 c 0.576,0 1.008,-0.105 1.296,-0.315 0.288,-0.21 0.498,-0.435 0.63,-0.675 v -1.08 c -0.12,-0.024 -0.3,-0.051 -0.54,-0.081 -0.24,-0.03 -0.498,-0.045 -0.774,-0.045 -0.228,0 -0.456,0.021 -0.684,0.063 -0.228,0.042 -0.432,0.108 -0.612,0.198 -0.18,0.09 -0.324,0.207 -0.432,0.351 -0.108,0.144 -0.162,0.318 -0.162,0.522 0,0.336 0.099,0.597 0.297,0.783 0.198,0.186 0.525,0.279 0.981,0.279 z"
     id="path11" /></g></svg>
