<svg viewBox="0 0 123.764 16.488" fill="currentColor" xmlns="http://www.w3.org/2000/svg">
  <path
    d="M0 0.324C0.276 0.276 0.573 0.231 0.891 0.189C1.209 0.147 1.527 0.114 1.845 0.09C2.163 0.066 2.472 0.048 2.772 0.036C3.072 0.024 3.348 0.018 3.6 0.018C4.188 0.018 4.767 0.075 5.337 0.189C5.907 0.303 6.417 0.498 6.867 0.774C7.317 1.05 7.677 1.422 7.947 1.89C8.217 2.358 8.352 2.94 8.352 3.636C8.352 4.152 8.301 4.599 8.199 4.977C8.097 5.355 7.956 5.688 7.776 5.976C7.596 6.264 7.377 6.513 7.119 6.723C6.861 6.933 6.582 7.122 6.282 7.29L9.324 12.798L6.48 12.798L3.942 7.866L2.466 7.866L2.466 12.798L0 12.798L0 0.324ZM3.78 2.214C3.528 2.214 3.279 2.22 3.033 2.232C2.787 2.244 2.598 2.268 2.466 2.304L2.466 5.958L3.438 5.958C4.122 5.958 4.68 5.802 5.112 5.49C5.544 5.178 5.76 4.662 5.76 3.942C5.76 3.402 5.592 2.979 5.256 2.673C4.92 2.367 4.428 2.214 3.78 2.214Z" />
  <path
    d="M15.624 3.798L18.972 3.798L18.972 10.062C18.972 10.314 18.972 10.566 18.972 10.818L20.34 10.818L20.34 12.798L17.496 12.798L17.082 11.466L17.01 11.466C16.734 11.922 16.32 12.3 15.768 12.6C15.216 12.9 14.604 13.05 13.932 13.05C13.476 13.05 13.059 12.99 12.681 12.87C12.303 12.75 11.982 12.552 11.718 12.276C11.454 12 11.25 11.628 11.106 11.16C10.962 10.692 10.89 10.104 10.89 9.396L10.89 5.778L9.864 5.778L9.864 3.798L13.23 3.798L13.23 8.91C13.23 9.642 13.347 10.17 13.581 10.494C13.815 10.818 14.184 10.98 14.688 10.98C15.132 10.98 15.531 10.848 15.885 10.584C16.239 10.32 16.488 9.996 16.632 9.612L16.632 5.778L15.624 5.778L15.624 3.798Z" />
  <path
    d="M20.25 0.198L23.976 0.198L23.976 4.518L24.048 4.518C24.3 4.23 24.639 4.002 25.065 3.834C25.491 3.666 26.016 3.582 26.64 3.582C27.828 3.582 28.779 3.954 29.493 4.698C30.207 5.442 30.564 6.564 30.564 8.064C30.564 8.868 30.444 9.579 30.204 10.197C29.964 10.815 29.625 11.331 29.187 11.745C28.749 12.159 28.215 12.474 27.585 12.69C26.955 12.906 26.244 13.014 25.452 13.014C24.516 13.014 23.733 12.906 23.103 12.69C22.473 12.474 21.984 12.258 21.636 12.042L21.636 2.178L20.25 2.178L20.25 0.198ZM25.992 5.562C25.824 5.562 25.638 5.592 25.434 5.652C25.23 5.712 25.035 5.796 24.849 5.904C24.663 6.012 24.489 6.147 24.327 6.309C24.165 6.471 24.048 6.654 23.976 6.858L23.976 10.602C24.168 10.698 24.432 10.794 24.768 10.89C25.104 10.986 25.464 11.034 25.848 11.034C26.16 11.034 26.457 10.977 26.739 10.863C27.021 10.749 27.267 10.572 27.477 10.332C27.687 10.092 27.852 9.792 27.972 9.432C28.092 9.072 28.152 8.64 28.152 8.136C28.152 7.284 27.969 6.642 27.603 6.21C27.237 5.778 26.7 5.562 25.992 5.562Z" />
  <path
    d="M36.702 10.26L37.386 10.26L39.132 3.798L41.544 3.798L38.988 11.916C38.76 12.588 38.538 13.203 38.322 13.761C38.106 14.319 37.854 14.802 37.566 15.21C37.278 15.618 36.939 15.933 36.549 16.155C36.159 16.377 35.682 16.488 35.118 16.488C34.842 16.488 34.581 16.452 34.335 16.38C34.089 16.308 33.864 16.221 33.66 16.119C33.456 16.017 33.276 15.909 33.12 15.795C32.964 15.681 32.838 15.576 32.742 15.48L33.948 13.878C34.104 14.01 34.29 14.133 34.506 14.247C34.722 14.361 34.926 14.418 35.118 14.418C35.478 14.418 35.763 14.292 35.973 14.04C36.183 13.788 36.384 13.374 36.576 12.798L35.298 12.798L31.554 3.798L34.092 3.798L36.702 10.26Z" />
  <path
    d="M58.478 3.132C58.478 3.444 58.439 3.756 58.361 4.068C58.283 4.38 58.154 4.665 57.974 4.923C57.794 5.181 57.56 5.409 57.272 5.607C56.984 5.805 56.636 5.952 56.228 6.048L56.228 6.156C56.588 6.216 56.93 6.318 57.254 6.462C57.578 6.606 57.86 6.804 58.1 7.056C58.34 7.308 58.529 7.614 58.667 7.974C58.805 8.334 58.874 8.76 58.874 9.252C58.874 9.9 58.736 10.461 58.46 10.935C58.184 11.409 57.815 11.796 57.353 12.096C56.891 12.396 56.366 12.618 55.778 12.762C55.19 12.906 54.584 12.978 53.96 12.978C53.756 12.978 53.495 12.978 53.177 12.978C52.859 12.978 52.517 12.969 52.151 12.951C51.785 12.933 51.413 12.906 51.035 12.87C50.657 12.834 50.312 12.78 50 12.708L50 0.288C50.228 0.252 50.489 0.216 50.783 0.18C51.077 0.144 51.392 0.114 51.728 0.09C52.064 0.066 52.409 0.048 52.763 0.036C53.117 0.024 53.468 0.018 53.816 0.018C54.404 0.018 54.977 0.063 55.535 0.153C56.093 0.243 56.591 0.402 57.029 0.63C57.467 0.858 57.818 1.176 58.082 1.584C58.346 1.992 58.478 2.508 58.478 3.132ZM53.978 10.944C54.278 10.944 54.569 10.908 54.851 10.836C55.133 10.764 55.382 10.653 55.598 10.503C55.814 10.353 55.988 10.164 56.12 9.936C56.252 9.708 56.318 9.438 56.318 9.126C56.318 8.73 56.24 8.418 56.084 8.19C55.928 7.962 55.724 7.785 55.472 7.659C55.22 7.533 54.938 7.452 54.626 7.416C54.314 7.38 54.002 7.362 53.69 7.362L52.376 7.362L52.376 10.836C52.436 10.86 52.532 10.878 52.664 10.89C52.796 10.902 52.937 10.911 53.087 10.917C53.237 10.923 53.393 10.929 53.555 10.935C53.717 10.941 53.858 10.944 53.978 10.944ZM53.168 5.49C53.336 5.49 53.531 5.484 53.753 5.472C53.975 5.46 54.158 5.442 54.302 5.418C54.758 5.274 55.151 5.058 55.481 4.77C55.811 4.482 55.976 4.104 55.976 3.636C55.976 3.324 55.916 3.066 55.796 2.862C55.676 2.658 55.517 2.496 55.319 2.376C55.121 2.256 54.896 2.172 54.644 2.124C54.392 2.076 54.128 2.052 53.852 2.052C53.54 2.052 53.252 2.058 52.988 2.07C52.724 2.082 52.52 2.1 52.376 2.124L52.376 5.49L53.168 5.49Z" />
  <path
    d="M61.304 4.41C61.784 4.194 62.339 4.008 62.969 3.852C63.599 3.696 64.346 3.618 65.21 3.618C65.834 3.618 66.365 3.693 66.803 3.843C67.241 3.993 67.595 4.206 67.865 4.482C68.135 4.758 68.33 5.088 68.45 5.472C68.57 5.856 68.63 6.288 68.63 6.768C68.63 7.38 68.609 7.902 68.567 8.334C68.525 8.766 68.504 9.15 68.504 9.486C68.504 9.738 68.516 10.02 68.54 10.332C68.564 10.5 68.582 10.662 68.594 10.818L69.764 10.818L69.764 12.798L66.776 12.798L66.542 11.574L66.452 11.574C66.212 11.946 65.87 12.267 65.426 12.537C64.982 12.807 64.382 12.942 63.626 12.942C62.726 12.942 62.012 12.702 61.484 12.222C60.956 11.742 60.692 11.106 60.692 10.314C60.692 9.81 60.785 9.375 60.971 9.009C61.157 8.643 61.427 8.343 61.781 8.109C62.135 7.875 62.561 7.701 63.059 7.587C63.557 7.473 64.112 7.416 64.724 7.416C64.94 7.416 65.168 7.428 65.408 7.452C65.648 7.476 65.942 7.5 66.29 7.524C66.314 7.404 66.326 7.284 66.326 7.164L66.326 6.822C66.326 6.366 66.194 6.039 65.93 5.841C65.666 5.643 65.276 5.544 64.76 5.544C64.148 5.544 63.596 5.622 63.104 5.778C62.612 5.934 62.198 6.09 61.862 6.246L61.304 4.41ZM64.382 11.016C64.958 11.016 65.39 10.911 65.678 10.701C65.966 10.491 66.176 10.266 66.308 10.026L66.308 8.946C66.188 8.922 66.008 8.895 65.768 8.865C65.528 8.835 65.27 8.82 64.994 8.82C64.766 8.82 64.538 8.841 64.31 8.883C64.082 8.925 63.878 8.991 63.698 9.081C63.518 9.171 63.374 9.288 63.266 9.432C63.158 9.576 63.104 9.75 63.104 9.954C63.104 10.29 63.203 10.551 63.401 10.737C63.599 10.923 63.926 11.016 64.382 11.016Z" />
  <path
    d="M70.7 3.798L73.85 3.798L74.12 4.986L74.192 4.986C74.468 4.602 74.864 4.266 75.38 3.978C75.896 3.69 76.514 3.546 77.234 3.546C77.678 3.546 78.095 3.606 78.485 3.726C78.875 3.846 79.208 4.044 79.484 4.32C79.76 4.596 79.979 4.971 80.141 5.445C80.303 5.919 80.384 6.504 80.384 7.2L80.384 12.798L78.044 12.798L78.044 7.686C78.044 6.954 77.879 6.426 77.549 6.102C77.219 5.778 76.802 5.616 76.298 5.616C75.854 5.616 75.449 5.745 75.083 6.003C74.717 6.261 74.468 6.582 74.336 6.966L74.336 12.798L71.996 12.798L71.996 5.778L70.7 5.778L70.7 3.798Z" />
  <path
    d="M82.346 10.818L85.514 10.818L85.514 5.778L82.346 5.778L82.346 3.798L87.854 3.798L87.854 10.818L91.184 10.818L91.184 12.798L82.346 12.798L82.346 10.818ZM85.082 1.35C85.082 0.978 85.22 0.66 85.496 0.396C85.772 0.132 86.156 0 86.648 0C87.152 0 87.554 0.132 87.854 0.396C88.154 0.66 88.304 0.978 88.304 1.35C88.304 1.734 88.154 2.049 87.854 2.295C87.554 2.541 87.152 2.664 86.648 2.664C86.156 2.664 85.772 2.541 85.496 2.295C85.22 2.049 85.082 1.734 85.082 1.35Z" />
  <path
    d="M94.172 5.778L92.39 5.778L92.39 3.798L94.172 3.798L94.172 1.746L96.512 1.08L96.512 3.798L101.228 3.798L101.228 5.778L96.512 5.778L96.512 8.352C96.512 9.276 96.686 9.945 97.034 10.359C97.382 10.773 97.868 10.98 98.492 10.98C98.816 10.98 99.11 10.941 99.374 10.863C99.638 10.785 99.875 10.686 100.085 10.566C100.295 10.446 100.487 10.314 100.661 10.17C100.835 10.026 100.994 9.894 101.138 9.774L102.218 11.394C102.014 11.634 101.759 11.853 101.453 12.051C101.147 12.249 100.817 12.423 100.463 12.573C100.109 12.723 99.74 12.84 99.356 12.924C98.972 13.008 98.594 13.05 98.222 13.05C96.878 13.05 95.867 12.675 95.189 11.925C94.511 11.175 94.172 9.984 94.172 8.352L94.172 5.778Z" />
  <path
    d="M110.12 10.314C110.12 10.074 109.973 9.882 109.679 9.738C109.385 9.594 109.022 9.462 108.59 9.342C108.158 9.222 107.684 9.099 107.168 8.973C106.652 8.847 106.178 8.673 105.746 8.451C105.314 8.229 104.951 7.947 104.657 7.605C104.363 7.263 104.216 6.822 104.216 6.282C104.216 5.838 104.315 5.448 104.513 5.112C104.711 4.776 104.981 4.491 105.323 4.257C105.665 4.023 106.073 3.846 106.547 3.726C107.021 3.606 107.534 3.546 108.086 3.546C108.674 3.546 109.19 3.588 109.634 3.672C110.078 3.756 110.465 3.858 110.795 3.978C111.125 4.098 111.407 4.233 111.641 4.383C111.875 4.533 112.076 4.668 112.244 4.788L111.254 6.39C111.074 6.282 110.867 6.171 110.633 6.057C110.399 5.943 110.153 5.838 109.895 5.742C109.637 5.646 109.367 5.568 109.085 5.508C108.803 5.448 108.524 5.418 108.248 5.418C107.744 5.418 107.336 5.484 107.024 5.616C106.712 5.748 106.556 5.952 106.556 6.228C106.556 6.444 106.703 6.618 106.997 6.75C107.291 6.882 107.654 7.005 108.086 7.119C108.518 7.233 108.992 7.356 109.508 7.488C110.024 7.62 110.498 7.791 110.93 8.001C111.362 8.211 111.725 8.484 112.019 8.82C112.313 9.156 112.46 9.588 112.46 10.116C112.46 11.028 112.127 11.745 111.461 12.267C110.795 12.789 109.808 13.05 108.5 13.05C107.468 13.05 106.577 12.897 105.827 12.591C105.077 12.285 104.474 11.928 104.018 11.52L105.098 9.828C105.254 9.96 105.461 10.107 105.719 10.269C105.977 10.431 106.268 10.578 106.592 10.71C106.916 10.842 107.261 10.953 107.627 11.043C107.993 11.133 108.356 11.178 108.716 11.178C109.1 11.178 109.43 11.112 109.706 10.98C109.982 10.848 110.12 10.626 110.12 10.314Z" />
  <path
    d="M115.304 4.41C115.784 4.194 116.339 4.008 116.969 3.852C117.599 3.696 118.346 3.618 119.21 3.618C119.834 3.618 120.365 3.693 120.803 3.843C121.241 3.993 121.595 4.206 121.865 4.482C122.135 4.758 122.33 5.088 122.45 5.472C122.57 5.856 122.63 6.288 122.63 6.768C122.63 7.38 122.609 7.902 122.567 8.334C122.525 8.766 122.504 9.15 122.504 9.486C122.504 9.738 122.516 10.02 122.54 10.332C122.564 10.5 122.582 10.662 122.594 10.818L123.764 10.818L123.764 12.798L120.776 12.798L120.542 11.574L120.452 11.574C120.212 11.946 119.87 12.267 119.426 12.537C118.982 12.807 118.382 12.942 117.626 12.942C116.726 12.942 116.012 12.702 115.484 12.222C114.956 11.742 114.692 11.106 114.692 10.314C114.692 9.81 114.785 9.375 114.971 9.009C115.157 8.643 115.427 8.343 115.781 8.109C116.135 7.875 116.561 7.701 117.059 7.587C117.557 7.473 118.112 7.416 118.724 7.416C118.94 7.416 119.168 7.428 119.408 7.452C119.648 7.476 119.942 7.5 120.29 7.524C120.314 7.404 120.326 7.284 120.326 7.164L120.326 6.822C120.326 6.366 120.194 6.039 119.93 5.841C119.666 5.643 119.276 5.544 118.76 5.544C118.148 5.544 117.596 5.622 117.104 5.778C116.612 5.934 116.198 6.09 115.862 6.246L115.304 4.41ZM118.382 11.016C118.958 11.016 119.39 10.911 119.678 10.701C119.966 10.491 120.176 10.266 120.308 10.026L120.308 8.946C120.188 8.922 120.008 8.895 119.768 8.865C119.528 8.835 119.27 8.82 118.994 8.82C118.766 8.82 118.538 8.841 118.31 8.883C118.082 8.925 117.878 8.991 117.698 9.081C117.518 9.171 117.374 9.288 117.266 9.432C117.158 9.576 117.104 9.75 117.104 9.954C117.104 10.29 117.203 10.551 117.401 10.737C117.599 10.923 117.926 11.016 118.382 11.016Z" />
</svg>
